<svg width="12" height="13" viewBox="0 0 12 13" fill="none" xmlns="http://www.w3.org/2000/svg">
<path fill-rule="evenodd" clip-rule="evenodd" d="M7.4141 6.91551L11.7071 2.65275C12.0981 2.2645 12.0981 1.63695 11.7071 1.2487C11.3161 0.860458 10.6841 0.860458 10.2931 1.2487L6.0001 5.51147L1.7071 1.2487C1.3161 0.860458 0.684097 0.860458 0.293097 1.2487C-0.0979026 1.63695 -0.0979026 2.2645 0.293097 2.65275L4.5861 6.91551L0.293097 11.1783C-0.0979026 11.5665 -0.0979026 12.1941 0.293097 12.5823C0.488097 12.776 0.744097 12.8733 1.0001 12.8733C1.2561 12.8733 1.5121 12.776 1.7071 12.5823L6.0001 8.31956L10.2931 12.5823C10.4881 12.776 10.7441 12.8733 11.0001 12.8733C11.2561 12.8733 11.5121 12.776 11.7071 12.5823C12.0981 12.1941 12.0981 11.5665 11.7071 11.1783L7.4141 6.91551Z" fill="#242424"/>
</svg>
