<svg width="24" height="24" viewBox="0 0 24 24" fill="none" xmlns="http://www.w3.org/2000/svg">
<path fill-rule="evenodd" clip-rule="evenodd" d="M13.4141 11.9155L17.7071 7.65275C18.0981 7.2645 18.0981 6.63695 17.7071 6.2487C17.3161 5.86046 16.6841 5.86046 16.2931 6.2487L12.0001 10.5115L7.7071 6.2487C7.3161 5.86046 6.6841 5.86046 6.2931 6.2487C5.9021 6.63695 5.9021 7.2645 6.2931 7.65275L10.5861 11.9155L6.2931 16.1783C5.9021 16.5665 5.9021 17.1941 6.2931 17.5823C6.4881 17.776 6.7441 17.8733 7.0001 17.8733C7.2561 17.8733 7.5121 17.776 7.7071 17.5823L12.0001 13.3196L16.2931 17.5823C16.4881 17.776 16.7441 17.8733 17.0001 17.8733C17.2561 17.8733 17.5121 17.776 17.7071 17.5823C18.0981 17.1941 18.0981 16.5665 17.7071 16.1783L13.4141 11.9155Z" fill="#242424"/>
</svg>
