<svg width="24" height="24" viewBox="0 0 24 24" fill="none" xmlns="http://www.w3.org/2000/svg">
<path d="M15.05 6.85C15.3814 6.40817 15.2918 5.78137 14.85 5.45C14.4082 5.11863 13.7814 5.20817 13.45 5.65L15.05 6.85ZM9.75 12.25L8.95 11.65C8.68333 12.0056 8.68333 12.4944 8.95 12.85L9.75 12.25ZM13.45 18.85C13.7814 19.2918 14.4082 19.3814 14.85 19.05C15.2918 18.7186 15.3814 18.0918 15.05 17.65L13.45 18.85ZM13.45 5.65L8.95 11.65L10.55 12.85L15.05 6.85L13.45 5.65ZM8.95 12.85L13.45 18.85L15.05 17.65L10.55 11.65L8.95 12.85Z" fill="#242424"/>
</svg>
