<svg width="64" height="69" viewBox="0 0 64 69" fill="none" xmlns="http://www.w3.org/2000/svg">
<g opacity="0.5">
<path d="M48.159 23.7298H44.4095C44.742 23.37 45.1043 23.0003 45.45 22.6107C45.6263 22.4141 45.7167 22.156 45.7015 21.8933C45.6862 21.6304 45.5665 21.3843 45.3685 21.2092C45.1706 21.0341 44.9107 20.9443 44.6461 20.9595C44.3814 20.9746 44.1338 21.0936 43.9574 21.2902C43.1597 22.1881 42.3585 23.0002 41.5741 23.7232H30.9769C30.4784 23.261 29.9798 22.7328 29.4346 22.1617C29.3515 22.0517 29.2462 21.9601 29.1255 21.8928C29.0047 21.8255 28.8712 21.7839 28.7334 21.7706C28.5956 21.7573 28.4565 21.7727 28.3251 21.8157C28.1936 21.8587 28.0725 21.9285 27.9696 22.0205C27.8668 22.1126 27.7843 22.2248 27.7276 22.3503C27.6708 22.4757 27.6409 22.6114 27.6399 22.749C27.6389 22.8865 27.6667 23.0226 27.7216 23.1489C27.7765 23.2751 27.8572 23.3886 27.9587 23.4822L28.1748 23.7133H10.3279C10.3869 23.493 10.3656 23.2593 10.268 23.053C9.74317 22.0019 9.43578 20.8569 9.36386 19.6857C9.35682 19.4231 9.245 19.1739 9.053 18.9932C8.861 18.8124 8.6046 18.7148 8.34011 18.7218C8.07563 18.7288 7.82477 18.8398 7.64272 19.0305C7.46077 19.2212 7.36237 19.4759 7.36951 19.7386C7.43814 21.1111 7.77698 22.4569 8.36668 23.7H5.86703C4.31094 23.7018 2.81916 24.3168 1.71917 25.4098C0.619188 26.5028 0.000844987 27.9848 0 29.5301V64.0481C0 65.3614 0.5253 66.6208 1.46042 67.5495C2.39544 68.4782 3.66367 68.9999 4.98608 68.9999H49.0466C50.369 68.9999 51.6371 68.4782 52.5723 67.5495C53.5074 66.6208 54.0327 65.3614 54.0327 64.0481V29.233C54.0327 26.0968 51.5031 23.7298 48.159 23.7298ZM5.88026 25.7106H30.2057C30.4484 25.9218 30.691 26.1199 30.9305 26.3081C31.1068 26.4455 31.3245 26.5199 31.5487 26.5193C31.699 26.5192 31.8474 26.4852 31.9827 26.42C32.118 26.3549 32.2366 26.2601 32.3299 26.143C32.4301 26.0175 32.4965 25.8687 32.5227 25.7106H41.7336C41.8004 25.7237 41.8683 25.7303 41.9364 25.7303C42.0022 25.7302 42.068 25.7236 42.1325 25.7106H48.1524C50.3961 25.7106 52.0249 27.1895 52.0249 29.2296V34.406C51.1628 33.7613 50.1124 33.4136 49.0333 33.4157H18.9406C18.8908 33.3403 18.8303 33.2724 18.7611 33.2143C18.7611 33.2143 18.1793 32.7389 17.3151 31.94C17.1216 31.7609 16.8643 31.6656 16.6 31.6749C16.3358 31.6842 16.0859 31.7974 15.9057 31.9896C15.7254 32.1817 15.6293 32.4371 15.6386 32.6997C15.648 32.9622 15.762 33.2102 15.9555 33.3892L15.9855 33.4157H5.8736C4.86581 33.3863 3.9091 32.9681 3.20663 32.2497C2.50417 31.5314 2.11125 30.5695 2.11125 29.568C2.11125 28.5667 2.50417 27.6047 3.20663 26.8864C3.9091 26.168 4.86581 25.7498 5.8736 25.7204L5.88026 25.7106ZM52.0382 45.3464H45.4333C44.8611 45.3447 44.2941 45.4551 43.7649 45.6712C43.2356 45.8875 42.7546 46.2051 42.3491 46.6063C41.9437 47.0074 41.6219 47.484 41.4022 48.0087C41.1826 48.5335 41.0693 49.0961 41.0688 49.6645V50.1959C41.0697 51.3409 41.5281 52.4387 42.3432 53.2483C43.1585 54.0579 44.2638 54.5131 45.4166 54.514H52.0382V64.0481C52.0382 64.8361 51.7231 65.5917 51.162 66.1489C50.601 66.7062 49.84 67.0192 49.0466 67.0192H4.99941C4.20597 67.0192 3.44501 66.7062 2.88403 66.1489C2.32296 65.5917 2.00778 64.8361 2.00778 64.0481V33.9273C3.07481 34.8693 4.4527 35.3897 5.88026 35.3899H49.0466C49.84 35.3899 50.601 35.7029 51.162 36.2601C51.7231 36.8172 52.0382 37.573 52.0382 38.361V45.3464ZM51.9452 47.3271V52.5333H45.4333C45.1243 52.5333 44.8183 52.4728 44.5327 52.3554C44.2472 52.2379 43.9877 52.0658 43.7692 51.8487C43.5506 51.6316 43.3773 51.374 43.259 51.0904C43.1408 50.8068 43.0799 50.5029 43.0799 50.1959V49.6645C43.0799 49.3575 43.1408 49.0536 43.259 48.77C43.3773 48.4864 43.5506 48.2288 43.7692 48.0117C43.9877 47.7947 44.2472 47.6225 44.5327 47.505C44.8183 47.3876 45.1243 47.3271 45.4333 47.3271H51.9452Z" fill="url(#paint0_linear_21385_77572)"/>
<path d="M13.1467 30.5444C13.3292 30.7127 13.5686 30.8071 13.8177 30.8089C14.0667 30.8107 14.3076 30.72 14.4926 30.5544C14.6777 30.3888 14.7936 30.1604 14.8176 29.9142C14.8417 29.668 14.7721 29.4217 14.6225 29.2239C13.7626 28.2868 12.9548 27.3037 12.2027 26.2792C12.048 26.066 11.8143 25.9226 11.5531 25.8805C11.2919 25.8384 11.0245 25.9011 10.8099 26.0547C10.5952 26.2084 10.4508 26.4404 10.4084 26.6998C10.366 26.9592 10.4292 27.2247 10.5839 27.4379C11.3793 28.52 12.2349 29.557 13.1467 30.5444Z" fill="url(#paint1_linear_21385_77572)"/>
<path d="M34.6998 28.3514C35.2997 28.5284 35.9221 28.6195 36.548 28.622C37.4914 28.6227 38.421 28.3961 39.2571 27.9619C39.4844 27.8372 39.6538 27.6295 39.7292 27.3827C39.8047 27.1361 39.7803 26.8699 39.6613 26.6407C39.5422 26.4116 39.3379 26.2376 39.0918 26.1558C38.8456 26.0739 38.577 26.0906 38.343 26.2023C37.8704 26.4445 37.3541 26.5912 36.8239 26.6337C36.2938 26.6762 35.7605 26.6138 35.255 26.4498C35.1279 26.4091 34.9938 26.394 34.8609 26.4056C34.7279 26.4172 34.5986 26.4552 34.4807 26.5174C34.3627 26.5795 34.2585 26.6646 34.1743 26.7675C34.0901 26.8705 34.0276 26.9891 33.9904 27.1164C33.9532 27.2438 33.9421 27.3772 33.9579 27.5089C33.9736 27.6407 34.0158 27.7678 34.0819 27.883C34.1481 27.9981 34.2369 28.0989 34.343 28.1794C34.4491 28.2599 34.5705 28.3183 34.6998 28.3514Z" fill="url(#paint2_linear_21385_77572)"/>
<path d="M16.471 14.3663C17.6505 14.5484 18.7856 14.9469 19.8183 15.5415C19.9654 15.6241 20.1314 15.6672 20.3003 15.667C20.5173 15.6634 20.7273 15.5896 20.8982 15.4567C21.0692 15.3237 21.1918 15.1391 21.2475 14.9307C21.3032 14.7223 21.2888 14.5015 21.2067 14.302C21.1245 14.1023 20.979 13.9349 20.7922 13.8249C19.545 13.1117 18.1758 12.6338 16.7535 12.4153C16.6236 12.3973 16.4915 12.4048 16.3646 12.4376C16.2377 12.4704 16.1184 12.5276 16.0138 12.6061C15.9092 12.6846 15.8211 12.7828 15.7547 12.895C15.6882 13.0073 15.6448 13.1314 15.6267 13.2603C15.6085 13.3894 15.6161 13.5206 15.6491 13.6467C15.682 13.7727 15.7398 13.891 15.8187 13.995C15.8978 14.0989 15.9967 14.1863 16.1097 14.2524C16.2227 14.3183 16.3478 14.3616 16.4777 14.3795L16.471 14.3663Z" fill="url(#paint3_linear_21385_77572)"/>
<path d="M24.7811 19.7034C24.9506 19.9014 25.1534 20.1523 25.3827 20.4428C25.4642 20.5447 25.5649 20.6296 25.6795 20.6929C25.7939 20.756 25.9197 20.7962 26.0498 20.8111C26.18 20.8259 26.3118 20.8152 26.4377 20.7795C26.5636 20.7438 26.6812 20.6838 26.7838 20.603C26.8864 20.522 26.9719 20.4219 27.0356 20.3082C27.0991 20.1946 27.1396 20.0695 27.1546 19.9403C27.1695 19.8111 27.1588 19.6802 27.1228 19.5552C27.0868 19.4302 27.0265 19.3133 26.9451 19.2114C26.6991 18.9011 26.4829 18.6337 26.3034 18.4224C25.634 17.6431 24.9121 16.9096 24.1428 16.2271C23.9454 16.052 23.6859 15.962 23.4216 15.9768C23.1573 15.9916 22.9097 16.1102 22.7334 16.3063C22.5571 16.5024 22.4664 16.7601 22.4815 17.0226C22.4964 17.2851 22.6157 17.531 22.8132 17.7061C23.5143 18.3264 24.1718 18.9937 24.7811 19.7034Z" fill="url(#paint4_linear_21385_77572)"/>
<path d="M8.95186 16.8785C9.15681 17.0444 9.41979 17.1226 9.68277 17.096C9.94584 17.0694 10.1875 16.9401 10.3546 16.7366C10.6424 16.3925 10.968 16.0813 11.3252 15.8089C11.873 15.3816 12.4769 15.0306 13.1203 14.7657C13.2416 14.7167 13.352 14.6445 13.4453 14.5531C13.5385 14.4617 13.6127 14.353 13.6637 14.2331C13.7146 14.1133 13.7412 13.9846 13.7421 13.8546C13.7429 13.7245 13.7181 13.5954 13.6687 13.475C13.6194 13.3544 13.5466 13.2447 13.4546 13.1522C13.3626 13.0595 13.2531 12.9858 13.1325 12.9353C13.0117 12.8846 12.8823 12.8582 12.7512 12.8573C12.6202 12.8565 12.4904 12.8812 12.369 12.9302C11.5571 13.2654 10.7954 13.7097 10.1053 14.2507C9.63273 14.6088 9.20338 15.0198 8.82558 15.4755C8.74033 15.5755 8.67602 15.6914 8.63621 15.8163C8.5964 15.9412 8.58194 16.0727 8.59367 16.2032C8.6055 16.3337 8.64315 16.4606 8.70465 16.5765C8.76615 16.6924 8.85018 16.7951 8.95186 16.8785Z" fill="url(#paint5_linear_21385_77572)"/>
<path d="M20.0474 50.3612C20.1424 50.4595 20.2567 50.5373 20.3833 50.5897C20.5099 50.6422 20.6461 50.6681 20.7832 50.6659C20.9204 50.6638 21.0556 50.6335 21.1805 50.5769C21.3053 50.5205 21.4171 50.439 21.5088 50.3378C21.6005 50.2364 21.6702 50.1174 21.7135 49.9881C21.7568 49.8588 21.7727 49.7221 21.7603 49.5864C21.7479 49.4508 21.7076 49.319 21.6415 49.1996C21.5756 49.0801 21.4856 48.9754 21.3771 48.8921L19.6286 47.3207L21.2108 45.5842C21.3648 45.3865 21.4377 45.1382 21.415 44.8893C21.3924 44.6403 21.2757 44.4091 21.0885 44.242C20.9013 44.0749 20.6574 43.9843 20.4057 43.9883C20.1541 43.9923 19.9133 44.0908 19.7316 44.2637L18.1494 46.0002L16.4042 44.4288C16.2051 44.2759 15.9552 44.2035 15.7045 44.2261C15.4538 44.2485 15.221 44.3644 15.0527 44.5503C14.8845 44.7362 14.7932 44.9784 14.7972 45.2283C14.8014 45.4783 14.9004 45.7175 15.0746 45.8979L16.8231 47.4692L15.2409 49.2024C15.1128 49.3446 15.0288 49.5204 14.9989 49.7089C14.9692 49.8973 14.9948 50.0902 15.0727 50.2646C15.1506 50.4389 15.2776 50.5872 15.4383 50.6915C15.599 50.796 15.7867 50.852 15.9787 50.853C16.1181 50.8523 16.2559 50.8226 16.3829 50.7657C16.51 50.7088 16.6237 50.6261 16.7167 50.523L18.299 48.7898L20.0474 50.3612Z" fill="url(#paint6_linear_21385_77572)"/>
<path d="M36.568 47.3207L38.1503 45.5842C38.3041 45.3865 38.3771 45.1382 38.3545 44.8893C38.3317 44.6403 38.2151 44.4091 38.0279 44.242C37.8407 44.0749 37.5969 43.9843 37.3452 43.9883C37.0935 43.9923 36.8527 44.0908 36.6711 44.2637L35.0888 46.0002L33.3437 44.4288C33.1445 44.2759 32.8945 44.2035 32.6438 44.2261C32.3932 44.2485 32.1603 44.3644 31.9921 44.5503C31.8238 44.7362 31.7326 44.9784 31.7367 45.2283C31.7407 45.4783 31.8398 45.7175 32.0141 45.8979L33.7625 47.4692L32.1802 49.2024C32.0522 49.3446 31.9682 49.5204 31.9384 49.7089C31.9085 49.8973 31.9342 50.0902 32.0121 50.2646C32.09 50.4389 32.2169 50.5872 32.3777 50.6915C32.5384 50.796 32.7261 50.852 32.9182 50.853C33.0576 50.8523 33.1952 50.8226 33.3224 50.7657C33.4495 50.7088 33.5632 50.6261 33.656 50.523L35.2383 48.7865L36.9868 50.3612C37.0817 50.4595 37.1962 50.5373 37.3227 50.5897C37.4494 50.6422 37.5855 50.6681 37.7227 50.6659C37.8599 50.6638 37.9951 50.6335 38.1199 50.5769C38.2447 50.5205 38.3565 50.439 38.4482 50.3378C38.5399 50.2364 38.6095 50.1174 38.6528 49.9881C38.6961 49.8588 38.7121 49.7221 38.6998 49.5864C38.6874 49.4508 38.6469 49.319 38.581 49.1996C38.5151 49.0801 38.425 48.9754 38.3164 48.8921L36.568 47.3207Z" fill="url(#paint7_linear_21385_77572)"/>
<path d="M35.1655 57.918C35.0092 57.7992 31.3295 55.0426 26.6891 55.0426C22.0487 55.0426 18.0898 57.7761 17.9236 57.8916C17.8162 57.9662 17.7246 58.0611 17.6542 58.1707C17.5837 58.2805 17.5357 58.4029 17.5128 58.531C17.49 58.6591 17.4927 58.7905 17.5211 58.9175C17.5494 59.0446 17.6025 59.1649 17.6776 59.2716C17.7527 59.3782 17.8482 59.4691 17.9586 59.5392C18.0691 59.6091 18.1924 59.6568 18.3214 59.6795C18.4504 59.7022 18.5827 59.6994 18.7107 59.6714C18.8385 59.6432 18.9597 59.5904 19.067 59.5159C19.1037 59.4895 22.7235 57.0234 26.6891 57.0234C30.6547 57.0234 33.9024 59.4531 33.9522 59.4895C34.0558 59.5723 34.1749 59.6336 34.3027 59.67C34.4305 59.7063 34.5643 59.717 34.6963 59.7012C34.8283 59.6855 34.9558 59.6437 35.0713 59.5783C35.1868 59.513 35.288 59.4253 35.3688 59.3206C35.4497 59.2158 35.5087 59.0961 35.5423 58.9683C35.5759 58.8406 35.5834 58.7074 35.5645 58.5768C35.5455 58.4462 35.5004 58.3206 35.432 58.2074C35.3635 58.0943 35.2729 57.9959 35.1655 57.918Z" fill="url(#paint8_linear_21385_77572)"/>
<path d="M46.0551 17.8961C46.2845 17.8961 46.5038 17.8961 46.7199 17.8762C46.6168 18.0215 46.5038 18.1701 46.3875 18.3352C46.3094 18.4396 46.2527 18.5584 46.2207 18.6845C46.1888 18.8108 46.1822 18.9421 46.2014 19.0707C46.2205 19.1995 46.265 19.3233 46.3324 19.435C46.3996 19.5467 46.4884 19.644 46.5936 19.7217C46.6988 19.7993 46.8183 19.8555 46.9454 19.8872C47.0726 19.919 47.2047 19.9255 47.3343 19.9065C47.464 19.8875 47.5886 19.8433 47.7011 19.7764C47.8134 19.7097 47.9115 19.6214 47.9897 19.517C48.7309 18.5266 49.1598 17.8663 49.1764 17.8498C49.2462 17.7433 49.2947 17.6245 49.3193 17.4999C53.9165 15.8955 53.1719 12.416 53.1653 12.383C53.1586 12.35 53.1486 12.3268 53.142 12.3037C52.8642 11.6017 52.3334 11.0274 51.6528 10.6928C51.2913 10.5373 50.9016 10.457 50.5077 10.457C50.1138 10.457 49.724 10.5373 49.3625 10.6928C48.958 10.8303 48.5879 11.0523 48.2771 11.3439C47.9664 11.6354 47.7222 11.9898 47.5609 12.383C47.4564 12.6453 47.3839 12.919 47.3448 13.1984C47.1119 13.0022 46.859 12.8307 46.5903 12.6867C46.2263 12.4745 45.8235 12.3361 45.4052 12.2795C44.987 12.2228 44.5617 12.249 44.1537 12.3566C42.9571 12.7164 42.1592 13.4196 41.8834 14.3373C41.6407 15.1791 41.8834 16.0837 42.6014 16.8793C43.3194 17.6749 44.7255 17.8961 46.0551 17.8961ZM48.7874 12.8881C48.8818 12.6646 49.0235 12.4639 49.2032 12.2998C49.3827 12.1357 49.5958 12.012 49.8279 11.9373C51.2007 11.419 51.7425 12.4192 51.8689 12.7164C51.9154 13.0135 52.1048 14.991 49.1697 16.1464C49.0858 15.8593 48.9824 15.578 48.8606 15.3046C48.6545 14.5915 48.495 13.6111 48.7908 12.8881H48.7874ZM43.1565 14.7236C43.2895 14.2547 43.7914 13.8586 44.5327 13.6375C44.6623 13.5999 44.7965 13.581 44.9316 13.5813C45.2908 13.5903 45.6423 13.6866 45.9554 13.8619C46.7067 14.2947 47.2915 14.9639 47.6174 15.7634C47.7072 16.0606 47.8003 16.295 47.8601 16.4468H47.8401C46.208 16.635 44.1271 16.6218 43.5953 16.0209C43.419 15.8582 43.2868 15.6541 43.2108 15.4275C43.1346 15.2008 43.1172 14.9587 43.1598 14.7236H43.1565Z" fill="url(#paint9_linear_21385_77572)"/>
<path d="M63.6093 9.33378C63.44 9.03969 63.2099 8.78458 62.9344 8.58485C62.6589 8.38522 62.344 8.24554 62.0104 8.17505C61.8822 8.14875 61.7522 8.13225 61.6215 8.12553C61.6838 7.99611 61.7371 7.86268 61.7811 7.72599C61.8944 7.41083 61.9439 7.07655 61.9268 6.74227C61.9096 6.40804 61.8262 6.08045 61.6814 5.77829C61.236 4.91336 60.5412 4.37526 59.7767 4.30264C59.4018 4.27815 59.0269 4.3504 58.6885 4.51238C58.35 4.67435 58.0597 4.92054 57.8454 5.22699C56.8481 6.47817 57.8953 9.46581 58.1147 10.0501C58.1237 10.0763 58.1348 10.1016 58.1479 10.1261C59.2415 12.1992 60.6908 12.7671 61.7711 12.7671C62.1246 12.7718 62.4754 12.7044 62.8015 12.5689L62.878 12.5327C63.3961 12.2129 63.7754 11.7125 63.9417 11.1296C64.012 10.8235 64.0189 10.5065 63.9617 10.1977C63.9045 9.88895 63.7846 9.59496 63.6093 9.33378ZM59.1151 8.84845C58.7828 7.66995 58.6099 6.39893 58.8891 6.0457C58.9689 5.92728 59.0734 5.82734 59.1956 5.75271C59.3177 5.67807 59.4547 5.63049 59.5972 5.61324H59.6504C59.9528 5.64294 60.2653 5.92025 60.5013 6.37913C60.6226 6.67998 60.6226 7.01575 60.5013 7.31665C60.2986 7.87508 59.9167 8.35184 59.4144 8.67353C59.308 8.73618 59.2049 8.79567 59.1151 8.84845ZM62.2398 11.3706C61.9672 11.4631 60.7771 11.7338 59.6636 10.0832C59.8132 10.0006 59.9562 9.91478 60.0924 9.82237C60.5645 9.59122 61.216 9.35681 61.7545 9.46908C61.9097 9.5018 62.0558 9.56819 62.1822 9.66349C62.3086 9.75878 62.4124 9.88065 62.4858 10.0204C62.9312 10.7731 62.4891 11.2023 62.2398 11.3706Z" fill="url(#paint10_linear_21385_77572)"/>
<path d="M58.477 17.6372C58.3889 17.6372 58.3044 17.6719 58.242 17.7339C58.1797 17.7958 58.1447 17.8797 58.1447 17.9672V19.0435C58.1447 19.1346 58.1811 19.2219 58.2459 19.2863C58.3107 19.3507 58.3986 19.3868 58.4903 19.3868C58.5821 19.3868 58.67 19.3507 58.7347 19.2863C58.7996 19.2219 58.836 19.1346 58.836 19.0435V17.9672C58.8361 17.9216 58.8267 17.8764 58.8084 17.8346C58.7901 17.7927 58.7632 17.755 58.7295 17.724C58.6957 17.693 58.6559 17.6692 58.6124 17.6543C58.569 17.6393 58.5228 17.6335 58.477 17.6372Z" fill="url(#paint11_linear_21385_77572)"/>
<path d="M58.477 20.6129C58.3889 20.6129 58.3044 20.6477 58.242 20.7096C58.1797 20.7715 58.1447 20.8555 58.1447 20.943V22.0193C58.1447 22.1103 58.1811 22.1976 58.2459 22.262C58.3107 22.3264 58.3986 22.3626 58.4903 22.3626C58.5821 22.3626 58.67 22.3264 58.7348 22.262C58.7996 22.1976 58.836 22.1103 58.836 22.0193V20.9562C58.8381 20.9095 58.83 20.8629 58.8126 20.8193C58.7951 20.7759 58.7684 20.7366 58.7345 20.7042C58.7006 20.6717 58.66 20.6467 58.6157 20.6311C58.5713 20.6153 58.5241 20.6091 58.477 20.6129Z" fill="url(#paint12_linear_21385_77572)"/>
<path d="M57.5196 19.6611H56.436C56.3443 19.6611 56.2564 19.6973 56.1915 19.7617C56.1267 19.8261 56.0902 19.9134 56.0902 20.0045C56.0902 20.0956 56.1267 20.1829 56.1915 20.2473C56.2564 20.3117 56.3443 20.3479 56.436 20.3479H57.5196C57.6113 20.3479 57.6993 20.3117 57.764 20.2473C57.8289 20.1829 57.8653 20.0956 57.8653 20.0045C57.8653 19.9134 57.8289 19.8261 57.764 19.7617C57.6993 19.6973 57.6113 19.6611 57.5196 19.6611Z" fill="url(#paint13_linear_21385_77572)"/>
<path d="M60.5148 19.6611H59.4311C59.3394 19.6611 59.2515 19.6973 59.1866 19.7617C59.1219 19.8261 59.0853 19.9134 59.0853 20.0045C59.0853 20.0956 59.1219 20.1829 59.1866 20.2473C59.2515 20.3117 59.3394 20.3479 59.4311 20.3479H60.5148C60.6064 20.3479 60.6943 20.3117 60.7592 20.2473C60.824 20.1829 60.8605 20.0956 60.8605 20.0045C60.8605 19.9134 60.824 19.8261 60.7592 19.7617C60.6943 19.6973 60.6064 19.6611 60.5148 19.6611Z" fill="url(#paint14_linear_21385_77572)"/>
<path d="M45.4664 1.75296C45.5545 1.75296 45.6391 1.71819 45.7014 1.65628C45.7638 1.59437 45.7988 1.51039 45.7988 1.42285V0.343331C45.7988 0.252279 45.7624 0.164957 45.6976 0.100563C45.6327 0.0361784 45.5448 0 45.4531 0C45.3614 0 45.2735 0.0361784 45.2086 0.100563C45.1439 0.164957 45.1074 0.252279 45.1074 0.343331V1.42285C45.1072 1.46851 45.1166 1.51371 45.135 1.55559C45.1533 1.59746 45.1802 1.6351 45.214 1.66614C45.2477 1.69716 45.2876 1.72091 45.3311 1.73585C45.3745 1.7508 45.4205 1.75662 45.4664 1.75296Z" fill="url(#paint15_linear_21385_77572)"/>
<path d="M45.4664 4.72879C45.5545 4.72879 45.6391 4.694 45.7014 4.6321C45.7638 4.57019 45.7988 4.48622 45.7988 4.39867V3.31916C45.7988 3.2281 45.7624 3.14077 45.6976 3.07638C45.6327 3.012 45.5448 2.97583 45.4531 2.97583C45.3614 2.97583 45.2735 3.012 45.2086 3.07638C45.1439 3.14077 45.1074 3.2281 45.1074 3.31916V4.39867C45.1072 4.44434 45.1166 4.48953 45.135 4.53141C45.1533 4.57329 45.1802 4.61093 45.214 4.64196C45.2477 4.67299 45.2876 4.69672 45.3311 4.71166C45.3745 4.72661 45.4205 4.73245 45.4664 4.72879Z" fill="url(#paint16_linear_21385_77572)"/>
<path d="M43.4257 2.70093H44.5127C44.6043 2.70093 44.6923 2.66477 44.7571 2.60038C44.822 2.536 44.8584 2.44867 44.8584 2.35761C44.8584 2.26655 44.822 2.17922 44.7571 2.11484C44.6923 2.05045 44.6043 2.01428 44.5127 2.01428H43.4257C43.334 2.01428 43.2461 2.05045 43.1813 2.11484C43.1164 2.17922 43.0801 2.26655 43.0801 2.35761C43.0801 2.44867 43.1164 2.536 43.1813 2.60038C43.2461 2.66477 43.334 2.70093 43.4257 2.70093Z" fill="url(#paint17_linear_21385_77572)"/>
<path d="M46.4206 2.70093H47.5043C47.5959 2.70093 47.6839 2.66477 47.7487 2.60038C47.8136 2.536 47.85 2.44867 47.85 2.35761C47.85 2.26655 47.8136 2.17922 47.7487 2.11484C47.6839 2.05045 47.5959 2.01428 47.5043 2.01428H46.4206C46.3289 2.01428 46.241 2.05045 46.1762 2.11484C46.1114 2.17922 46.075 2.26655 46.075 2.35761C46.075 2.44867 46.1114 2.536 46.1762 2.60038C46.241 2.66477 46.3289 2.70093 46.4206 2.70093Z" fill="url(#paint18_linear_21385_77572)"/>
</g>
<defs>
<linearGradient id="paint0_linear_21385_77572" x1="-27.0163" y1="13.3345" x2="49.8342" y2="74.2929" gradientUnits="userSpaceOnUse">
<stop stop-color="#3681FF"/>
<stop offset="1" stop-color="#FF00CA"/>
</linearGradient>
<linearGradient id="paint1_linear_21385_77572" x1="8.18215" y1="25.3382" x2="15.3191" y2="30.0576" gradientUnits="userSpaceOnUse">
<stop stop-color="#3681FF"/>
<stop offset="1" stop-color="#FF00CA"/>
</linearGradient>
<linearGradient id="paint2_linear_21385_77572" x1="31.0403" y1="25.8347" x2="34.4878" y2="31.7184" gradientUnits="userSpaceOnUse">
<stop stop-color="#3681FF"/>
<stop offset="1" stop-color="#FF00CA"/>
</linearGradient>
<linearGradient id="paint3_linear_21385_77572" x1="12.7852" y1="12.0563" x2="17.7505" y2="18.4211" gradientUnits="userSpaceOnUse">
<stop stop-color="#3681FF"/>
<stop offset="1" stop-color="#FF00CA"/>
</linearGradient>
<linearGradient id="paint4_linear_21385_77572" x1="20.1392" y1="15.4564" x2="27.3269" y2="20.5852" gradientUnits="userSpaceOnUse">
<stop stop-color="#3681FF"/>
<stop offset="1" stop-color="#FF00CA"/>
</linearGradient>
<linearGradient id="paint5_linear_21385_77572" x1="6.01355" y1="12.4026" x2="12.6352" y2="18.3364" gradientUnits="userSpaceOnUse">
<stop stop-color="#3681FF"/>
<stop offset="1" stop-color="#FF00CA"/>
</linearGradient>
<linearGradient id="paint6_linear_21385_77572" x1="11.3136" y1="43.2527" x2="21.6548" y2="50.9993" gradientUnits="userSpaceOnUse">
<stop stop-color="#3681FF"/>
<stop offset="1" stop-color="#FF00CA"/>
</linearGradient>
<linearGradient id="paint7_linear_21385_77572" x1="28.2529" y1="43.2527" x2="38.5942" y2="50.9993" gradientUnits="userSpaceOnUse">
<stop stop-color="#3681FF"/>
<stop offset="1" stop-color="#FF00CA"/>
</linearGradient>
<linearGradient id="paint8_linear_21385_77572" x1="8.45899" y1="54.5427" x2="13.0228" y2="67.5943" gradientUnits="userSpaceOnUse">
<stop stop-color="#3681FF"/>
<stop offset="1" stop-color="#FF00CA"/>
</linearGradient>
<linearGradient id="paint9_linear_21385_77572" x1="36.0815" y1="9.44348" x2="50.8329" y2="22.5887" gradientUnits="userSpaceOnUse">
<stop stop-color="#3681FF"/>
<stop offset="1" stop-color="#FF00CA"/>
</linearGradient>
<linearGradient id="paint10_linear_21385_77572" x1="54.1326" y1="3.39054" x2="65.605" y2="9.9676" gradientUnits="userSpaceOnUse">
<stop stop-color="#3681FF"/>
<stop offset="1" stop-color="#FF00CA"/>
</linearGradient>
<linearGradient id="paint11_linear_21385_77572" x1="57.799" y1="17.4485" x2="59.2755" y2="17.879" gradientUnits="userSpaceOnUse">
<stop stop-color="#3681FF"/>
<stop offset="1" stop-color="#FF00CA"/>
</linearGradient>
<linearGradient id="paint12_linear_21385_77572" x1="57.7988" y1="20.4242" x2="59.2759" y2="20.8551" gradientUnits="userSpaceOnUse">
<stop stop-color="#3681FF"/>
<stop offset="1" stop-color="#FF00CA"/>
</linearGradient>
<linearGradient id="paint13_linear_21385_77572" x1="55.2027" y1="19.5876" x2="56.089" y2="21.2788" gradientUnits="userSpaceOnUse">
<stop stop-color="#3681FF"/>
<stop offset="1" stop-color="#FF00CA"/>
</linearGradient>
<linearGradient id="paint14_linear_21385_77572" x1="58.1978" y1="19.5876" x2="59.0842" y2="21.2788" gradientUnits="userSpaceOnUse">
<stop stop-color="#3681FF"/>
<stop offset="1" stop-color="#FF00CA"/>
</linearGradient>
<linearGradient id="paint15_linear_21385_77572" x1="44.7617" y1="-0.187932" x2="46.2388" y2="0.241805" gradientUnits="userSpaceOnUse">
<stop stop-color="#3681FF"/>
<stop offset="1" stop-color="#FF00CA"/>
</linearGradient>
<linearGradient id="paint16_linear_21385_77572" x1="44.7617" y1="2.7879" x2="46.2388" y2="3.21764" gradientUnits="userSpaceOnUse">
<stop stop-color="#3681FF"/>
<stop offset="1" stop-color="#FF00CA"/>
</linearGradient>
<linearGradient id="paint17_linear_21385_77572" x1="42.1909" y1="1.9407" x2="43.0763" y2="3.63323" gradientUnits="userSpaceOnUse">
<stop stop-color="#3681FF"/>
<stop offset="1" stop-color="#FF00CA"/>
</linearGradient>
<linearGradient id="paint18_linear_21385_77572" x1="45.1874" y1="1.9407" x2="46.0738" y2="3.63186" gradientUnits="userSpaceOnUse">
<stop stop-color="#3681FF"/>
<stop offset="1" stop-color="#FF00CA"/>
</linearGradient>
</defs>
</svg>
