<svg width="24" height="25" viewBox="0 0 24 25" fill="none" xmlns="http://www.w3.org/2000/svg">
<path d="M23 12.288C23 18.4348 18.0663 23.4016 12 23.4016C5.93373 23.4016 1 18.4348 1 12.288C1 6.14116 5.93373 1.17432 12 1.17432C18.0663 1.17432 23 6.14116 23 12.288Z" fill="#FCFCFC" stroke="url(#paint0_linear_21385_77639)" stroke-width="2"/>
<path d="M12 23.1787C17.9724 23.1787 22.798 18.2939 22.798 12.288C22.798 6.28208 17.9724 1.39721 12 1.39721C6.02758 1.39721 1.20203 6.28208 1.20203 12.288C1.20203 18.2939 6.02758 23.1787 12 23.1787ZM23 12.288C23 18.4348 18.0663 23.4016 12 23.4016C5.93373 23.4016 1 18.4348 1 12.288C1 6.14116 5.93373 1.17432 12 1.17432C18.0663 1.17432 23 6.14116 23 12.288Z" fill="#FCFCFC" stroke="url(#paint1_linear_21385_77639)" stroke-width="2"/>
<path fill-rule="evenodd" clip-rule="evenodd" d="M15.2121 17.056C15.1195 17.056 15.0264 17.0363 14.9409 16.9956L11.9542 15.571L8.96802 16.9956C8.77004 17.0892 8.53105 17.0732 8.35181 16.9534C8.1714 16.8336 8.08178 16.6309 8.11986 16.4304L8.68862 13.4207L6.27534 11.2897C6.11484 11.148 6.05685 10.9352 6.12538 10.7405C6.19392 10.547 6.37726 10.4052 6.59867 10.3764L9.93743 9.93358L11.4299 7.19241C11.6279 6.82877 12.281 6.82877 12.479 7.19241L13.9715 9.93358L17.3102 10.3764C17.5317 10.4052 17.715 10.547 17.7835 10.7405C17.8521 10.9352 17.7941 11.148 17.6336 11.2897L15.2203 13.4207L15.7891 16.4304C15.8271 16.6309 15.7369 16.8336 15.5571 16.9534C15.4552 17.0218 15.3339 17.056 15.2121 17.056Z" fill="url(#paint2_linear_21385_77639)"/>
<defs>
<linearGradient id="paint0_linear_21385_77639" x1="-13.4737" y1="-18.4621" x2="35.8923" y2="-5.98055" gradientUnits="userSpaceOnUse">
<stop stop-color="#3681FF"/>
<stop offset="1" stop-color="#FF00CA"/>
</linearGradient>
<linearGradient id="paint1_linear_21385_77639" x1="-13.4737" y1="-18.4621" x2="35.8923" y2="-5.98055" gradientUnits="userSpaceOnUse">
<stop stop-color="#3681FF"/>
<stop offset="1" stop-color="#FF00CA"/>
</linearGradient>
<linearGradient id="paint2_linear_21385_77639" x1="11.9545" y1="6.91968" x2="11.9545" y2="20.4348" gradientUnits="userSpaceOnUse">
<stop stop-color="#FFC700"/>
<stop offset="1" stop-color="#FFD645" stop-opacity="0.29"/>
</linearGradient>
</defs>
</svg>
